<svg fill="none" height="48" viewBox="0 0 60 48" width="60" xmlns="http://www.w3.org/2000/svg"><g stroke="#000" stroke-linecap="round" stroke-linejoin="round" stroke-miterlimit="10" stroke-width="2"><path d="m23.3301 6.97998s1.59 0 2.57-.99c.27-.27.42-.52.5-.75 0 0 .7-1.12 2.68-.05"/><path d="m15.7299 22.9404c-2.5-2.5-3.6-5.45-2.47-6.58 1.14-1.14 4.08-.03 6.58 2.47"/><path d="m16.4399 13.8703c1.43-.05 3.58 1.03 5.45 2.9"/><path d="m19.1899 11.1204c1.43-.05 3.58 1.03 5.45 2.9l4.14-4.14003"/><path d="m12.8301 17.2804s.08-1.37 1.1-2.4c1.02-1.02 2.28-1 2.28-1"/><path d="m16.22 13.8801s1.59 0 2.57-.98.41-1.78.41-1.78"/><path d="m15.73 22.9401c2.5 2.5 5.45 3.6 6.58 2.47 1.14-1.14.03-4.08-2.47-6.58"/><path d="m21.3901 25.8302s1.37-.08 2.4-1.1c1.02-1.02 1-2.28 1-2.28"/><path d="m24.79 22.45s0-1.59.99-2.57c.98-.98 1.78-.41 1.78-.41"/><path d="m29.3101 1.0002c1.43-.050002 3.58 1.03 5.45 2.9"/><path d="m29.0801 1.01028s-1.26-.019998-2.28 1c-.69.69-1.42 2.1-.63 3"/><path d="m31.69 15.3304s0-1.59.99-2.57c.27-.27.52-.42.75-.5 0 0 2-1.24-1.89-5.13003"/><path d="m37.67 9.36016c.05-1.43-1.03-3.58-2.9-5.45"/><path d="m37.65 9.59033c-.01.84997-.41 1.68997-1 2.27997-.81.81-2.06 1.39-3.15.77"/><path d="m19.1899 11.1202 4.14-4.14002c1.43-.05 3.58 1.03 5.45 2.9"/><path d="m27.5501 19.4801c.05-1.43-1.03-3.58-2.9-5.45l4.14-4.13996"/><path d="m27.55 19.4801 4.1401-4.14c.05-1.43-1.03-3.58-2.9-5.44996"/><path d="m28.6 23.0802-2.89-2.88"/><path d="m32.45 13.4902 2.8 2.94"/><path d="m35.2501 16.4302c.47.47-.63 2.35-2.47 4.19s-3.71 2.94-4.19 2.47"/><path d="m29.47 23.0601s2.72-.24 8.36 5.4 15.24 21.69 19.86 17.07"/><path d="m35.23 17.3003s-.24 2.72 5.4 8.36 21.69 15.24 17.07 19.86"/><path d="m19.86 36.2403c-7.96 0-14.41005-1.56-14.41005-3.47 0-1.92 6.45005-3.47 14.41005-3.47"/><path d="m19.86 46.3505c-8.57 0-15.73996-1.44-17.56996-3.37"/><path d="m19.8601 42.3001c-9.95001 0-18.02001-1.95-18.02001-4.34 0-.47.32-.93.9-1.36"/><path d="m2.07003 37.2705s-2.5 3.11.14 5.64l.05.05"/><path d="m2.73999 36.6005s2.28-1.59 2.72-3.83"/><path d="m19.8601 36.2403c7.96 0 14.41-1.56 14.41-3.47 0-1.92-6.45-3.47-14.41-3.47"/><path d="m19.8601 46.3505c8.57 0 15.74-1.44 17.57-3.37"/><path d="m19.8601 42.3001c9.95 0 18.02-1.95 18.02-4.34 0-.47-.32-.93-.9-1.36"/><path d="m37.65 37.2705s2.5 3.11-.14 5.64c-.02.02-.03.03-.05.05"/><path d="m36.98 36.6005s-2.28-1.59-2.72-3.83"/></g></svg>