<svg fill="none" height="64" viewBox="0 0 64 64" width="64" xmlns="http://www.w3.org/2000/svg"><g stroke="#000" stroke-linecap="round" stroke-linejoin="round" stroke-miterlimit="10" stroke-width="2"><path d="m12.8906 27.7946c7.7301.035 15.6204.0438 15.6204.0438l2.1997-.9468"/><path d="m34.3798 44.4163c-4.426-.0175-15.9855-.0438-21.4892-.0701"/><path d="m12.8906 18.9316c3.2684.2367 5.566.6751 6.6258 1.2537 2.645 1.4289 11.1943 6.7065 11.1943 6.7065s18.0428.6575 19.5122 2.9193c1.4694 2.2706 3.9096 4.4096 2.0661 12.0454 0 0-.4007 1.9375-4.8535 2.4722"/><path d="m43.5171 46.1787c-.6234.64-1.5051 1.0433-2.4758 1.0433-1.0241 0-1.9325-.4384-2.5648-1.1397-.5432-.5961-.8727-1.3764-.8727-2.2355v-.0088c0-1.8761 1.5406-3.3927 3.4375-3.3927s3.4376 1.5166 3.4376 3.384c0 .0526-.0089.1139-.0089.1665-.0445.8504-.4008 1.6131-.9529 2.1829z"/><path d="m30.9067 43.8729c0-.0088 0-.0263 0-.0263 0-5.523 4.533-9.9853 10.1257-9.9853"/><path d="m45.6455 48.1862c-1.1577 1.1923-2.7963 1.9374-4.6042 1.9374-1.8969 0-3.5978-.8153-4.7645-2.1127-1.0063-1.1046-1.6119-2.5599-1.6208-4.1555 0-.0087 0-.0175 0-.0175 0-3.4804 2.8587-6.3032 6.3942-6.3032s6.3942 2.8228 6.3942 6.2944c0 .1052-.0089.2104-.0178.3156-.0979 1.5693-.748 2.9807-1.7811 4.0415z"/><path d="m50.971 30.9067h-7.2046s1.4605 2.7791 2.7607 2.9544c1.3002.1666 6.0558.2718 6.0558.2718"/><path d="m46.5271 33.8613h-33.6365 5.1386"/><path d="m12.8906 50.1235h39.6923"/><path d="m34.3798 24.7877-1.4694-5.4792 5.2899 1.955-1.7811-7.8988 6.5902 4.2694s7.2402-9.88881 7.2402-9.75731.0891 12.04541.0891 12.04541l5.753-.9906-4.8269 8.6878"/><path d="m39.652 25.1995-.57-1.3325 3.0279.675 3.6157-3.9976.3117 4.4973 2.9834-.1665-1.1577 1.7182"/></g></svg>