<svg fill="none" height="64" viewBox="0 0 64 64" width="64" xmlns="http://www.w3.org/2000/svg" xmlns:xlink="http://www.w3.org/1999/xlink"><clipPath id="a"><path d="m0 0h64v64h-64z"/></clipPath><g clip-path="url(#a)" fill="#000"><path d="m4.41409 28.5579c-.48332 1.3365-.45695 2.8478.19332 4.228l2.30234 4.9094c1.44116 3.0662 3.27775 4.9181 5.37795 5.5209l-2.1617 1.0046c-.44818.2096-.6415.7338-.4306 1.188 1.0721 2.28 3.805 3.2671 6.0986 2.2014l2.2408-1.0395c.4481-.2097.6415-.7338.4306-1.1881l-.2285-.4979 5.1759 4.1581c1.4323 1.1706 3.7698 1.2754 5.9491.2708l17.6366-8.1765c2.1705-1.0046 3.5941-2.8478 3.6293-4.6997l.1142-6.3683.1758.3669c.2109.4455.7381.6377 1.1951.4281l2.2408-1.0396c2.2935-1.0657 3.2865-3.7825 2.2144-6.0625-.2109-.4455-.7381-.6377-1.1951-.428l-1.9508.9085c1.2303-2.0791 1.1775-4.8395-.29-7.9581l-2.1793-4.6386c-.6679-1.4152-1.8278-2.42853-3.1899-2.9614l-2.4253-5.17147c-.2109-.44551-.7382-.6377-1.1951-.42804l-7.6101 3.52917c-.4481.20966-.6414.7338-.4305 1.18805l1.6432 3.50299-3.5589 1.651-17.663 8.1853-3.5765 1.6597-1.6433-3.503c-.2109-.4455-.7381-.6377-1.1951-.428l-7.59242 3.5204c-.44816.2097-.64149.7338-.43059 1.1881zm10.61531 17.4275c-1.1072.5154-2.399.2358-3.1986-.594l3.8226-1.7734.7996 1.7122zm33.7881-9.583c-.0263 1.1357-1.0896 2.4198-2.6011 3.1186l-17.6366 8.1766c-1.5026.6988-3.1723.6901-4.051-.035l-7.3288-5.8878c1.1423-2.1751 13.9721-8.7268 23.1288-12.4307.1318 0 .2636-.0262.3954-.0786l.0176-.0088-.0264-.0611c3.8753-1.555 7.0213-2.5596 8.2691-2.4635zm-24.2272-6.7089 10.2814-4.7609c.7821 1.2754 1.942 2.4285 3.4271 3.3894-1.8102.7513-3.7347 1.5986-5.7294 2.5246-2.9087 1.3453-5.4395 2.5945-7.61 3.7301.2548-1.8083.1318-3.4418-.3691-4.8832zm30.5718-4.2979c.1231 1.1531-.4833 2.3062-1.5993 2.8216l-1.4236.6639-.7996-1.7122zm-11.0986-20.32773 1.5026 3.20596c-.8348 0-1.6784.15724-2.4868.53287l-3.7347 1.7296-1.2654-2.69925zm-10.3605 10.05463.0615 1.6423-14.0425 6.508-1.2303-1.1006zm-16.9776 7.8708 2.2321 2.0005c.2636.2358.6502.297.9754.1485l15.1146-7.006c.3251-.1485.5272-.4804.5184-.8386l-.1054-2.9876 8.3745-3.8873c2.0563-.9522 4.508-.0699 5.4658 1.9742l2.1794 4.6386c1.0193 2.1839 2.1353 6.0538-1.4939 8.0804-.9667-.3843-2.8033-.0524-6.0283 1.0396-1.0721.3669-2.276.8037-3.5589 1.3103-1.5291-.7949-3.392-2.1053-4.3235-4.0795-.2109-.4455-.7382-.6377-1.1951-.428l-11.8193 5.4772c-.4481.2096-.6414.7338-.4305 1.188.7645 1.6336.8436 3.6777.2899 6.0538-4.3234 2.4023-6.7927 4.2892-7.3903 5.6344-2.7856 1.0745-5.1407-.3931-7.00364-4.359l-2.30234-4.9094c-.88754-1.8957-.06151-4.1494 1.84539-5.0317zm-6.6873-2.149 1.2654 2.6993-3.98952 1.852c-.70301.3232-1.30056.7775-1.79266 1.3191l-1.44994-3.0924z"/><path d="m47.2686 21.6731c1.5017-.8157 2.1489-2.9004 1.4499-4.6527s-2.4855-2.5076-3.9871-1.6919c-1.5017.8157-2.1489 2.9004-1.4499 4.6527.699 1.7423 2.4855 2.5077 3.9871 1.6919zm-1.795-4.4916c.6213-.3424 1.3549-.0201 1.6483.705.2848.7251.0173 1.5811-.6041 1.9235s-1.3549.0202-1.6483-.7049c-.2848-.7251-.0173-1.5812.6041-1.9236z"/><path d="m40.8457 19.7653c.9987-.584 1.4337-2.074.9665-3.3224-.4671-1.2484-1.6592-1.7921-2.6579-1.2082-.9987.584-1.4337 2.074-.9665 3.3224.4671 1.2484 1.6592 1.7921 2.6579 1.2082zm-.5235-2.4566c.0805.2215.008.4833-.1692.594-.1772.1007-.3866.0101-.4752-.2114-.1691-.443.4752-.8256.6444-.3826z"/><path d="m14.2686 36.7185c1.5017-.699 2.1489-2.4855 1.4499-3.9871-.699-1.5017-2.4855-2.1489-3.9871-1.4499-1.5017.699-2.14893 2.4855-1.4499 3.9871.699 1.5017 2.4855 2.1489 3.9871 1.4499zm-1.795-3.8404c.6213-.2934 1.3549-.0173 1.6483.6041.2848.6214.0173 1.3549-.6041 1.6483-.6214.2935-1.3549.0173-1.6483-.6041-.2848-.6213-.0173-1.3635.6041-1.6483z"/><path d="m16.8457 30.8122c.9987-.4671 1.4337-1.6592.9665-2.6579-.4671-.9987-1.6592-1.4337-2.6579-.9665-.9987.4671-1.4337 1.6592-.9665 2.6579.4671.9987 1.6592 1.4337 2.6579.9665zm-.5235-1.9652c.0805.1772.008.3866-.1692.4752-.1772.0805-.3866.008-.4752-.1692-.1611-.3624.4833-.6604.6444-.306z"/><path d="m37.766 40.0713-3.2688 1.4068c-.4318.1876-.6182.6566-.4149 1.063.2032.3986.7113.5705 1.1517.383l3.2688-1.4069c.4318-.1876.6182-.6565.4149-1.0629-.2032-.3908-.7198-.5628-1.1517-.383z"/><path d="m52.352 47.8131 6.6099 5.8801c.23.2045.5365.3068.843.3068.3066 0 .6131-.1023.8431-.3068.4694-.4176.4694-1.0823 0-1.4999l-6.6099-5.8801c-.4694-.4176-1.2167-.4176-1.6861 0-.4693.4176-.4693 1.0823 0 1.4999z"/><path d="m54 44c0 .5565.4575 1 1.0131 1h7.9738c.5638 0 1.0131-.4516 1.0131-1 0-.5565-.4575-1-1.0131-1h-7.9738c-.5556 0-1.0131.4516-1.0131 1z"/><path d="m53.195 42c.3066 0 .6131-.1023.8431-.3068l6.6099-5.8802c.4694-.4175.4694-1.0822 0-1.4998s-1.2167-.4176-1.6861 0l-6.6099 5.8801c-.4693.4176-.4693 1.0823 0 1.4999.23.2045.5365.3068.843.3068z"/><path d="m63 57h-64v2h64z"/></g></svg>