<svg fill="none" height="64" viewBox="0 0 64 64" width="64" xmlns="http://www.w3.org/2000/svg"><g stroke="#000" stroke-linecap="round" stroke-linejoin="round" stroke-miterlimit="10" stroke-width="2"><path d="m15.08 23.6597-6.00001 6c-3.31 3.31-.72 11.27 5.78001 17.78 6.51 6.51 14.47 9.1 17.78 5.78l6-6"/><path d="m14.9101 23.83c-3.31 3.31-.72 11.27 5.79 17.78s14.47 9.1 17.78 5.79.72-11.27-5.78-17.78c-6.51-6.51-14.47-9.1-17.79-5.79z"/><path d="m52.2501 19.0698 5.05 5.05c2.79 2.79.61 9.49-4.87 14.97-2.77 2.77-5.85 4.7-8.59 5.57"/><path d="m34.95 26.9301c.73-.97 1.5599-1.92 2.4799-2.85 5.48-5.48 12.18-7.66 14.97-4.87s.61 9.49-4.87 14.97c-1.52 1.52-3.13 2.78-4.72 3.75"/><path d="m37.66 12.1299v4.37c0 2.41-3.84 4.37-8.58 4.37s-8.58-1.96-8.58-4.37v-4.37"/><path d="m37.66 12.2499c0 2.41-3.84 4.37-8.58 4.37s-8.58-1.96-8.58-4.37c0-2.41001 3.84-4.37002 8.58-4.37002 4.74.01 8.58 1.96001 8.58 4.37002z"/><path d="m26.01 12.2601c0-.52 1.37-.93 3.07-.93s3.07.42 3.07.93"/><path d="m26.2402 30.4399s-5.45 1.1-3.45 3.76c1.97 2.62 5.73-.65 7.88.97 2.28 1.73-.06 3.81-3.48 4.87"/><path d="m21.3 29.9399 1.56 1.53"/><path d="m30.22 38.6699 1.87 1.84"/><path d="m14.5201 32.6201-8.17 8.17"/><path d="m14.7002 39.6499-6 6"/><path d="m20.6002 41.5098-7.67 7.66"/><path d="m21.26 48.2998-6 6"/><path d="m27.16 50.1797-5.9 5.9"/></g></svg>