<svg fill="none" height="64" viewBox="0 0 64 64" width="64" xmlns="http://www.w3.org/2000/svg" xmlns:xlink="http://www.w3.org/1999/xlink"><clipPath id="a"><path d="m0 0h64v64h-64z"/></clipPath><g style="clip-path:url(#a);stroke:#000;stroke-width:2;stroke-miterlimit:10;stroke-linecap:round;stroke-linejoin:round"><path d="m36.1925 32.0236c-.2587 2.0817-2.0366 3.7019-4.1857 3.7019-2.3291 0-4.2194-1.8903-4.2194-4.2195 0-2.1716 1.6315-3.9494 3.7356-4.1857"/><path d="m48 47.5044c8.8365-8.8366 8.8365-23.1635 0-32-8.8366-8.83657-23.1635-8.83655-32 0-8.83657 8.8366-8.83657 23.1634 0 32 8.8365 8.8365 23.1634 8.8366 32 0z"/><path d="m32.0068 31.5062 10.6556-10.6556"/><path d="m50.5275 31.5059h-3.2856"/><path d="m16.7717 31.5059h-3.2856"/><path d="m29.4524 44.1421v3.2856"/><path d="m33.9534 44.1421v3.2856"/><path d="m38.4541 44.1421v3.2856"/><path d="m32.0066 12.9854v3.2855"/><path d="m24.9517 44.1421v3.2856"/></g></svg>