<svg fill="none" height="45" viewBox="0 0 63 45" width="63" xmlns="http://www.w3.org/2000/svg"><g stroke="#000" stroke-linecap="round" stroke-linejoin="round" stroke-miterlimit="10" stroke-width="2"><path d="m31.8456 28.0394-5.9248 4.5482-.1396-5.2365"/><path d="m31.8364 28.0394 5.9248 4.5482.1396-5.2365"/><path d="m29.2693 30.2993s.2139 3.4786 2.5671 3.4786"/><path d="m31.762 33.7871s-1.6091 1.2743-1.8416 2.8741c-.2326 1.5997-.6511 6.7991-.6511 6.7991"/><path d="m34.4035 30.2993s-.2139 3.4786-2.5671 3.4786"/><path d="m31.9109 33.7871s1.6091 1.2743 1.8416 2.8741c.2325 1.5997.6511 6.7991.6511 6.7991"/><path d="m39.6958 25.5c2.9856 1.9625 8.2036 3.0415 9.5615 6.6503.7255 1.9346 1.4138 4.6227 1.7672 6.9294.0279.0837.0372.1767.0372.2697 0 .0186-.0093.0372-.0093.0558s.0093.0372.0093.0558c-.0186 2.409-7.7292 4.325-17.607 4.5017-.6883.028-1.3952.0373-2.13.028l1.0418.0093c-.7348-.0093-1.4417-.0279-2.13-.0652-9.8778-.3348-17.5512-2.3718-17.5326-4.7807 0-.0187 0-.0373.0093-.0559 0-.0186-.0093-.0372-.0093-.0558 0-.093.0186-.1767.0465-.2697.3813-2.3067 1.1161-4.9761 1.8788-6.9014 1.358-3.46 6.2969-4.5111 9.3477-6.3062"/><path d="m41.5653 11.5018c-.0186-5.3109-4.353-9.65454-9.6732-9.69174h-.0186c-5.3203.0372-9.6453 4.37153-9.6732 9.68244-.1674.1582-.3069.3349-.4278.5488-.7627 1.3208-.4093 3.5437.3441 4.8459.5581.9673 1.2557 1.3673 1.8137 1.5161 1.2092 2.7252 3.8228 7.2176 7.9525 7.2362 4.139-.0186 6.7526-4.5017 7.9618-7.2269 1.7765-.4465 2.5857-2.7997 2.5857-4.5111 0-1.1347-.3535-1.9253-.865-2.3997z"/><path d="m10.2113 36.5034c-4.28785-.4557-8.41755-1.5812-8.43615-4.3715v-.1023c0-.1488.0186-.2976.0558-.4465.28834-1.7765.82781-3.8134 1.42308-5.3574.66968-1.73 1.98114-2.9206 3.57163-3.8042l6.49214-3.6832"/><path d="m21.9585 3.06572c-1.2184-.7813-2.6694-1.24636-4.2227-1.25566h-.0093c-4.325.0279-7.85015 3.55302-7.86875 7.86875-.13022.13021-.25112.27904-.35344.44649-.61387 1.0696-.33485 2.8833.27903 3.9436.45576.7906 1.02316 1.1162 1.47886 1.2278.9766 2.223 3.1066 5.869 6.4736 5.8876 1.1905-.0093 2.223-.465 3.1066-1.144"/><path d="m53.5638 36.5034c4.2879-.4557 8.4176-1.5812 8.4362-4.3715v-.1023c0-.1488-.0187-.2976-.0559-.4465-.2883-1.7765-.8277-3.8134-1.4137-5.3574-.6697-1.73-1.9812-2.9206-3.5717-3.8042l-6.4921-3.6832"/><path d="m41.8071 3.06572c1.2185-.7813 2.6694-1.24636 4.2227-1.25566h.0186c4.3251.0279 7.8502 3.55303 7.8688 7.87806.1302.13021.2511.27904.3534.44648.6139 1.0696.3349 2.8833-.279 3.9437-.4557.7905-1.0231 1.1161-1.4789 1.2277-.9766 2.223-3.1065 5.869-6.4736 5.8876-1.1905-.0093-2.2229-.465-3.1065-1.144"/></g></svg>