<svg fill="none" height="64" viewBox="0 0 64 64" width="64" xmlns="http://www.w3.org/2000/svg"><g stroke="#000" stroke-linecap="round" stroke-linejoin="round" stroke-miterlimit="10" stroke-width="2"><path d="m31.9999 16.9312h-8.2128l-10.1162 9.5734 8.5704 22.1354 9.7586 2.1166"/><path d="m15.6479 24.3685-3.1337-2.9004c-.6205-.5782-.6205-1.5384 0-2.1166l4.3219-4.0273c.6205-.5781 1.651-.5781 2.2714 0l3.0917 2.8515"/><path d="m48.3521 24.3685 3.1337-2.9004c.6204-.5782.6204-1.5384 0-2.1166l-4.322-4.0273c-.6204-.5781-1.6509-.5781-2.2714 0l-3.0916 2.8515"/><path d="m15.1853 30.4243-4.1853 3.1846 4.1853 15.0313h7.0561"/><path d="m32 16.9312h8.2128l10.1162 9.5734-8.5704 22.1354-9.7586 2.1166"/><path d="m48.8149 30.4243 4.1853 3.1846-4.1853 15.0313h-7.0561"/><path d="m38.2358 12.8354h-12.5138c-1.0621 0-1.9349.8133-1.9349 1.803v.4802c0 .9897.8728 1.803 1.9349 1.803h12.5138c1.0621 0 1.9349-.8133 1.9349-1.803v-.4802c0-.9897-.8728-1.803-1.9349-1.803z"/><path d="m35.0813 39.4487c0 1.5972-1.3881 2.8907-3.1022 2.8907s-3.1021-1.2935-3.1021-2.8907 1.388-2.8906 3.1021-2.8906 3.1022 1.2934 3.1022 2.8906z"/><path d="m31.9789 46.3863c4.1118 0 7.4451-3.1061 7.4451-6.9376s-3.3333-6.9375-7.4451-6.9375c-4.1119 0-7.4452 3.106-7.4452 6.9375s3.3333 6.9376 7.4452 6.9376z"/><path d="m26.5529 26.3672c0 1.5972-1.388 2.8907-3.1021 2.8907s-3.1022-1.2935-3.1022-2.8907 1.3881-2.8906 3.1022-2.8906 3.1021 1.2934 3.1021 2.8906z"/><path d="m39.4348 22.6829c0 1.0093-.8728 1.8226-1.9559 1.8226s-1.956-.8133-1.956-1.8226.8729-1.8225 1.956-1.8225c1.0726 0 1.9559.823 1.9559 1.8225z"/><path d="m22.5991 23.5941 14.5854-2.7142"/><path d="m39.4346 39.4488v-16.7657"/><path d="m20.5693 27.4258 4.1643 13.6203"/><path d="m35.3336 7.70068h-6.667c-1.1567 0-2.1031.88189-2.1031 1.95976v1.21506c0 1.0778.9464 1.9597 2.1031 1.9597h6.667c1.1568 0 2.1032-.8819 2.1032-1.9597v-1.21506c0-1.07787-.9464-1.95976-2.1032-1.95976z"/><path d="m39.6977 49.5806v3.1258c0 1.2248-1.0726 2.2243-2.3871 2.2243h-10.6735c-1.3145 0-2.3871-.9995-2.3871-2.2243v-3.1258"/></g></svg>