<svg fill="none" height="64" viewBox="0 0 64 64" width="64" xmlns="http://www.w3.org/2000/svg"><g stroke="#000" stroke-linecap="round" stroke-linejoin="round" stroke-miterlimit="10" stroke-width="1.5"><path d="m42.6661 45.2261h-24.119"/><path d="m9.27977 44.819s-7.33811-.905-7.59768-2.6939c-.26659-1.7819-.701541-3.4516 0-4.2373.70154-.7857-1.199627-3.1359.43496-3.6831 1.73281-.5752 1.5504-.3788 9.59005-2.6027 8.0397-2.2239 19.4958-4.2934 29.5489 2.8342 0 0 17.7139.2315 17.1316 4.4127-.7506 5.3598 1.0523 6.1666-.3508 6.2297-.491.021-3.7251.0421-5.8929.0701"/><path d="m13.9871 31.1392s2.0204 3.2411 6.4331 3.5077c4.4127.2665 18.9977.3718 18.9977.3718l1.845-.5753"/><path d="m20.9885 29.7358 2.4975 4.7074"/><path d="m15.8041 46.1028c-.449.47-1.0874.7647-1.7889.7647-.7366 0-1.3961-.3227-1.8521-.8349-.3928-.4349-.6314-1.0102-.6314-1.6416v-.007c0-1.375 1.1155-2.4904 2.4835-2.4904 1.375 0 2.4834 1.1154 2.4834 2.4834 0 .0421-.007.0842-.007.1263-.028.6173-.2876 1.1786-.6875 1.5995z"/><path d="m7.50488 44.4122c0-.007 0-.014 0-.014 0-3.6059 2.91142-6.5173 6.51032-6.5173s6.5103 2.9184 6.5103 6.5103c0 .1052-.0141.2174-.0141.3227"/><path d="m17.3404 47.5759c-.8419.8769-2.0205 1.4171-3.3253 1.4171-1.3751 0-2.5957-.6033-3.4446-1.5504-.72259-.8138-1.16456-1.8801-1.17157-3.0447 0-.007 0-.014 0-.014 0-2.5536 2.06957-4.6232 4.61617-4.6232s4.6161 2.0696 4.6161 4.6162c0 .0771-.007.1543-.014.2315-.0562 1.1505-.5332 2.1888-1.2768 2.9675z"/><path d="m49.1764 46.1028c-.449.47-1.0873.7647-1.7889.7647-.7366 0-1.3961-.3227-1.8521-.8349-.3928-.4349-.6313-1.0102-.6313-1.6416v-.007c0-1.375 1.1154-2.4904 2.4834-2.4904 1.375 0 2.4835 1.1154 2.4835 2.4834 0 .0421-.0071.0842-.0071.1263-.028.6173-.2806 1.1786-.6875 1.5995z"/><path d="m41.0104 45.0995c-.0281-.2245-.0421-.456-.0421-.6945 0-.007 0-.0141 0-.0141 0-3.5568 2.8693-6.4261 6.4191-6.4261 3.5427 0 6.419 2.8764 6.419 6.4191 0 .1053-.014.2105-.014.3157-.007.1544-.021.3017-.0351.449"/><path d="m50.7127 47.5759c-.8419.8769-2.0204 1.4171-3.3253 1.4171-1.375 0-2.5957-.6033-3.4446-1.5504-.7226-.8138-1.1645-1.8801-1.1716-3.0447 0-.007 0-.014 0-.014 0-2.5536 2.0696-4.6232 4.6162-4.6232 2.5536 0 4.6161 2.0696 4.6161 4.6162 0 .0771-.007.1543-.014.2315-.0561 1.1505-.5262 2.1888-1.2768 2.9675z"/><path d="m24.8189 45.1488s-.891-3.6971-1.7469-6.2437c-.8278-2.4764-2.9043-2.4133-2.9043-2.4133l-15.76365-.9962"/><path d="m58.1279 38.7579h-3.2902c-.463 0-.8419-.3788-.8419-.8418 0-.4631.3789-.8419.8419-.8419h2.4063"/><path d="m1.73828 36.6673s2.1397.1123 2.66586-1.1716l-2.29404-1.1505"/><path d="m1.30322 49h57.28778"/><path d="m57.8849 25.7321c.7241-4.479-2.3198-8.6969-6.7988-9.421-4.4789-.7241-8.6969 2.3198-9.421 6.7987-.7241 4.479 2.3198 8.6969 6.7988 9.421 4.479.7242 8.6969-2.3197 9.421-6.7987z"/><path d="m43.6201 24.425h6.1525v-5.9631"/></g></svg>