<svg fill="none" height="64" viewBox="0 0 64 64" width="64" xmlns="http://www.w3.org/2000/svg" xmlns:xlink="http://www.w3.org/1999/xlink"><clipPath id="a"><path d="m0 0h64v64h-64z"/></clipPath><g style="clip-path:url(#a);stroke:#000;stroke-width:2;stroke-miterlimit:10;stroke-linecap:round;stroke-linejoin:round"><path d="m38.5201 43.7301-1.43-1.43c-1.19-1.19-1.19-3.12 0-4.31 1.03-1.03 2.6-1.16 3.78-.42-.74-1.18-.61-2.75.42-3.78 1.19-1.19 3.12-1.19 4.31 0l.68.68c-.38-1-.17-2.17.63-2.97 1.09-1.09 2.86-1.09 3.95 0l3.63 3.56c1.09 1.09 1.09 2.86 0 3.95-.55.55-1.26.82-1.98.82-.46 0-.91-.12-1.32-.35.67 1.16.52 2.67-.48 3.67-.6.6-1.38.89-2.16.89-.57 0-1.13-.16-1.62-.47.74 1.18.61 2.75-.42 3.78-.6.6-1.38.89-2.16.89-.54 0-1.08-.15-1.56-.44.6 1.07.46 2.44-.45 3.35-.55.55-1.26.82-1.98.82s-1.43-.27-1.98-.82l-2.92-2.86c-1.09-1.09-1.09-2.86 0-3.95.84-.83 2.04-1.03 3.06-.61z"/><path d="m51.18 39.4802-4.9-5.01"/><path d="m46.9301 43.5598-6.06-5.99"/><path d="m42.79 47.79-4.27-4.06"/><path d="m18.7601 44.8303c-.93.93-2.62 1.01-3.91.05-1.43-1.05-1.89-2.9-1.04-4.13.08-.12.17-.22.26-.32.04-.04.09-.08.13-.12l14.1-13.78"/><path d="m32.12 49.0101c-.08.11-2.78 2.92-2.87 3.01-.93.96-2.57.96-3.86 0-1.34-.99-2.2-2.82-1.19-3.94"/><path d="m37.6402 50.63c-.68.68-1.1201 1.12-1.1401 1.14-.93.93-2.67 3.06-4.79.94 0 0-1.67-1.56-.05-3.19"/><path d="m58.4201 27.5498c-.51.51-1.04 1.03-1.47 1.62-.52.73-.82 1.56-1.26 2.32-.43.74-.98 1.42-1.54 2.07-.18.21-.36.42-.54.63"/><path d="m45.26 14.3901c-1.61 1.17-3.67 1.31-5.56.96-1.78-.32-3.6-.88-5.43-.74"/><path d="m17.53 46.08 9.5-9.58"/><path d="m21.8801 50.4199 9.47-9.54"/><path d="m32.1201 49.0099 1.1-1.11"/><path d="m17.53 46.0801c-1.04 1.04-.91 2.85.29 4.05s3.01 1.33 4.05.29"/><path d="m31.51 22.4402c1.09.03 2.35.67 2.9 1.62.35.61.21 1.33-.1 1.93-1.02 1.94-2.51 3.81-2.5 6.11.01 1.46 1.31 2.52 2.67 2.77.77.15 1.22-.0999 1.66-.7299.93-1.32 1.92-2.6101 2.89-3.9001 1.19-1.58 2.48-3.16 3.45-4.89.1-.17.2-.35.25-.54.33-1.26-.31-2.64-.89-3.73-.41-.77-.84-1.54-1.44-2.18-.98-1.05-6.11-4.42-7.59-5.07-1.36-.59-2.75-.25-4.08.22-1.15.41-2.31.8001-3.48 1.1501-1.09.34-2.2.6999-3.33.9199-1.22.23-2.68.39-3.75-.37 0 0-2.4-.33-8.02 5.28-5.62004 5.62-5.12004 7.85-5.12004 7.85 3.6 2.8 5.19004 5.73 10.04004 10.58"/><path d="m32.15 19.0601c-.38 3.47-2.41 6.77-5.36 8.64s-6.08.94-8.54-1.27"/><path d="m25.47 34.5s5.25 5.74 8.38 8.07"/><path d="m18.1701 15.74-3.01-4.72s-3.1901.06-8.86005 5.73c-5.670001 5.67-5.979982 9.11-5.979982 9.11l4.720002 3.01"/><path d="m58.42 27.5498s.33-2.4-5.29-8.03-7.86-5.13-7.86-5.13"/><path d="m58.42 27.5499 4.72-3.01s-.06-3.19-5.75-8.88c-5.69-5.68999-9.12-5.98998-9.12-5.98998l-3.01 4.71998"/></g></svg>