<svg xmlns="http://www.w3.org/2000/svg" width="1485.628" height="283" viewBox="0 0 1485.628 283">
  <g id="Group_24" data-name="Group 24" transform="translate(-257.732 -374)">
    <g id="Group_22" data-name="Group 22" transform="translate(10 10)">
      <path id="Subtraction_4" data-name="Subtraction 4" d="M1043.2,174.479a100.44,100.44,0,0,1-21.964-2.34,68.463,68.463,0,0,1-19.827-7.56,42.228,42.228,0,0,1-14.471-13.59,39.136,39.136,0,0,1-5.9-20.43h26.005a61.421,61.421,0,0,0,16.7,10.446,79.41,79.41,0,0,0,21.339,5.748l-.718,13.7,23.25-20.932-7.635-8.481a7.081,7.081,0,0,0-1.922-2.133l-11.378-12.636-.437,8.339c-2.938-.661-6.574-1.363-11.443-2.21a137.887,137.887,0,0,1-23.239-5.64,55.47,55.47,0,0,1-15.791-8.16,29.446,29.446,0,0,1-9-11.039,33.431,33.431,0,0,1-2.854-14.28A33.655,33.655,0,0,1,989.6,63.829,38.34,38.34,0,0,1,1003.96,51.69,69.757,69.757,0,0,1,1023,45.446a107.011,107.011,0,0,1,19.718-1.767,120.358,120.358,0,0,1,20.621,1.661,69.519,69.519,0,0,1,19.249,6.049c13.135,6.619,20.069,17.267,20.61,31.649h-21.551a65.343,65.343,0,0,0-11.46-6.317,79.023,79.023,0,0,0-20.055-5.575c-.411-.155-.839-.3-1.27-.417l.706-13.457-23.251,20.932,4.041,4.488a6.488,6.488,0,0,0,1.372,1.523l15.522,17.24.635-12.135c1.231.231,2.5.464,3.723.689l.019,0,.009,0c5.993,1.1,12.787,2.348,19.371,4.074l.02.009.007,0V94.1c2.031.533,3.969,1.093,5.762,1.663,9.2,2.884,16.041,6.691,20.91,11.64a29.765,29.765,0,0,1,6.461,9.825,35.714,35.714,0,0,1,2.389,13.334c0,15.717-6.843,27.466-20.34,34.92a69.279,69.279,0,0,1-20.362,7A120.492,120.492,0,0,1,1043.2,174.479Zm-271.92,0c-12.589,0-23.3-3.122-30.96-9.03a31.832,31.832,0,0,1-9.472-11.726A39.437,39.437,0,0,1,727.36,136.8a40.781,40.781,0,0,1,1.424-11.054,30.562,30.562,0,0,1,3.962-8.689,31.008,31.008,0,0,1,6.039-6.649,40.643,40.643,0,0,1,7.654-4.932c11.077-5.579,25.126-7.433,37.52-9.069l.018,0c4.969-.656,9.661-1.276,13.7-2.085,3.171-.588,6.445-1.358,8.91-3a8.954,8.954,0,0,0,4.05-8.04c0-8.494-8.059-11.52-15.6-11.52-6.431,0-11.235,1.474-14.279,4.38a11.457,11.457,0,0,0-3.48,8.339H733.12a45.568,45.568,0,0,1,1.9-11.883,34.4,34.4,0,0,1,4.5-9.376,33.9,33.9,0,0,1,6.682-7.154,42.356,42.356,0,0,1,8.428-5.216,60.166,60.166,0,0,1,9.743-3.563A88.473,88.473,0,0,1,775,45.094a153.058,153.058,0,0,1,22.2-1.414,157.853,157.853,0,0,1,19.49,1.092,82.435,82.435,0,0,1,14.646,3.082c7.819,2.5,13.552,6.087,17.528,10.969a27.683,27.683,0,0,1,4.266,7.3,38.279,38.279,0,0,1,2.19,8.13,110.708,110.708,0,0,1,.92,17.572v51.692c0,10.317.441,20.209,5.76,27.841H813.52a33.088,33.088,0,0,1-1.68-11.76h-.48a40.7,40.7,0,0,1-8.456,7.185,44.2,44.2,0,0,1-9.694,4.576A68.6,68.6,0,0,1,771.28,174.479Zm39.36-59.04c-5.023,2.511-10.459,3.894-16.214,5.359l-.321.082-.046.012c-.7.178-1.423.363-2.139.548-5.267,1.317-9.323,2.6-12,4.56-2.822,2.069-4.081,4.807-4.081,8.879a10.508,10.508,0,0,0,4.2,7.92,16.839,16.839,0,0,0,10.68,3.6c11.809,0,19.255-7.267,19.92-19.44Zm-160.32,59.04c-18.48,0-35.441-6.35-47.76-17.88A60.6,60.6,0,0,1,588.152,136a67.916,67.916,0,0,1-5.272-26.8,68.179,68.179,0,0,1,5.272-26.842A61,61,0,0,1,602.56,61.68c12.337-11.607,29.3-18,47.76-18,17.058,0,31.872,4.233,42.84,12.24a48.415,48.415,0,0,1,13.927,15.705A56.449,56.449,0,0,1,713.68,94.08H668.56c-.482-5.314-2.209-9.161-5.279-11.76a17.784,17.784,0,0,0-12-4.08c-8.31,0-13.963,3.209-17.28,9.81-3.227,6.421-3.6,15.146-3.6,21.15a77.729,77.729,0,0,0,.7,11.28,31.676,31.676,0,0,0,2.9,9.841c3.3,6.459,8.95,9.6,17.28,9.6,9.677,0,17.449-7.671,18.481-18.239h45.36a63.02,63.02,0,0,1-7.324,22.526A55.349,55.349,0,0,1,693.61,160.77a61.807,61.807,0,0,1-19.632,10.219A78.407,78.407,0,0,1,650.32,174.479Zm278.64-3.118H881.44V46.8h45.6V66.72h.481a57.47,57.47,0,0,1,6.285-9.978,35.31,35.31,0,0,1,7.636-7.212c5.736-3.936,12.645-5.85,21.119-5.85a56.611,56.611,0,0,1,13.92,1.92v42l-.008,0c-4.581-1.6-8.909-3.118-18.713-3.118-9.776,0-16.812,2.865-21.51,8.76-4.905,6.156-7.29,15.616-7.29,28.921v49.2Z" transform="translate(626.8 425.64)" fill="#44a640"/>
      <text id="Trade" transform="translate(621 596)" fill="#0053a0" font-size="240" font-family="HelveticaNeueLTPro-Lt, Helvetica Neue LT Pro"><tspan x="0" y="0">Trade</tspan></text>
    </g>
    <g id="Group_23" data-name="Group 23" transform="translate(11 31.528)">
      <g id="agreement" transform="translate(246.732 379.33)">
        <path id="Path_46" data-name="Path 46" d="M33.588,0A33.588,33.588,0,1,1,0,33.588,33.588,33.588,0,0,1,33.588,0Z" transform="translate(34.35 0)" fill="#44a640"/>
        <path id="Path_45" data-name="Path 45" d="M33.588,0A33.588,33.588,0,1,1,0,33.588,33.588,33.588,0,0,1,33.588,0Z" transform="translate(248.935 0)" fill="#0053a0"/>
        <path id="Path_35" data-name="Path 35" d="M84.538,300.515a75.263,75.263,0,0,1-33.591-62.526h16.8a58.856,58.856,0,0,0,58.785,58.785l21.878-.42.331-32.243-22.209-.928a25.221,25.221,0,0,1-25.194-25.194A42.038,42.038,0,0,0,59.345,196H54.883a42.2,42.2,0,0,0-41.563,36.052L0,330.365H84.538Z" transform="translate(0 -128.082)" fill="#44a640"/>
        <path id="Path_36" data-name="Path 36" d="M357.291,196h-4.462a42.038,42.038,0,0,0-41.989,41.989,25.221,25.221,0,0,1-25.194,25.193l-25.274,3.288.188,27.516,25.086,2.788a58.857,58.857,0,0,0,58.785-58.79h16.8a75.546,75.546,0,0,1-33.591,62.792v29.59h84.538l-13.321-98.313A42.2,42.2,0,0,0,357.291,196Z" transform="translate(-61.715 -128.082)" fill="#0053a0"/>
      </g>
      <g id="Group_6" data-name="Group 6" transform="translate(407.508 517.714)">
        <g id="Group_16" data-name="Group 16" transform="translate(0 0)">
          <path id="Path_42" data-name="Path 42" d="M183.155,243.111a4.571,4.571,0,0,0-4.111,2.54l-6.994,13.992a9.157,9.157,0,0,0,11.89-4.317l1.512-3.025H189.9a4.628,4.628,0,0,1,3.249,1.346l17.035,17.035V243.111Z" transform="translate(-172.05 -243.111)" fill="#0053a0"/>
        </g>
      </g>
      <g id="Group_7" data-name="Group 7" transform="translate(395.092 506.226)">
        <g id="Group_18" data-name="Group 18" transform="translate(0 0)">
          <path id="Path_43" data-name="Path 43" d="M121.265,193.385h-1.607l-.133.266a14,14,0,0,1-11.24,7.8c-3.559.291-6.025-.733-8.95-2.063a2.312,2.312,0,0,1-1.123-3.13l8.084-16.172A9.193,9.193,0,0,1,114.52,175h9.916a11.111,11.111,0,0,0,1.03-4.6,2.3,2.3,0,0,0-2.3-2.3H105.329a6.894,6.894,0,0,0-6.167,3.811l-2.054,4.109a2.3,2.3,0,0,1-2.056,1.271H91v32.167h10.537l6.509,6.509a6.815,6.815,0,0,0,6.949,1.7l19.622-6.168a6.647,6.647,0,0,0,2.968-1.8Z" transform="translate(-91 -168.11)" fill="#44a640"/>
        </g>
      </g>
    </g>
  </g>
</svg>
